<svg width="24" height="23" viewBox="0 0 24 23" fill="none" xmlns="http://www.w3.org/2000/svg">
<path d="M11.9999 0.117188C5.71415 0.117188 0.571289 5.24862 0.571289 11.5686C0.571289 17.2829 4.75415 22.0258 10.217 22.8829V14.8829H7.31415V11.5686H10.217V9.0429C10.217 6.17433 11.9199 4.59719 14.537 4.59719C15.7827 4.59719 17.0856 4.81433 17.0856 4.81433V7.63719H15.6456C14.2284 7.63719 13.7827 8.51719 13.7827 9.42005V11.5686H16.9599L16.4456 14.8829H13.7827V22.8829C16.4758 22.4576 18.9281 21.0835 20.6969 19.0087C22.4657 16.9339 23.4345 14.2951 23.4284 11.5686C23.4284 5.24862 18.2856 0.117188 11.9999 0.117188Z" fill="#1877F2"/>
</svg>
