<svg width="32" height="33" viewBox="0 0 32 33" fill="none" xmlns="http://www.w3.org/2000/svg">
<path d="M15.9994 3C8.48937 3 2.66602 8.50334 2.66602 15.9333C2.66602 19.82 4.25935 23.18 6.85268 25.5C7.06935 25.6934 7.20269 25.9667 7.20936 26.26L7.28269 28.6334C7.30602 29.39 8.08602 29.8834 8.77934 29.5767L11.426 28.41C11.6494 28.31 11.9027 28.2934 12.1394 28.3567C13.356 28.69 14.6494 28.87 15.9994 28.87C23.5094 28.87 29.3327 23.3667 29.3327 15.9367C29.3327 8.50667 23.5094 3 15.9994 3Z" fill="url(#paint0_radial_16338_1929)"/>
<path d="M8.10271 20.0313L11.9972 13.8531C12.617 12.8687 13.9429 12.6267 14.8743 13.3228L17.9733 15.6462C18.2583 15.8584 18.6495 15.8584 18.9312 15.6429L23.1141 12.4676C23.671 12.0434 24.4001 12.7129 24.0289 13.3062L20.131 19.4811C19.5112 20.4655 18.1854 20.7075 17.2541 20.0114L14.155 17.688C13.8699 17.4758 13.4788 17.4758 13.1971 17.6913L9.01419 20.8666C8.45736 21.2908 7.72817 20.6246 8.10271 20.0313Z" fill="white"/>
<defs>
<radialGradient id="paint0_radial_16338_1929" cx="0" cy="0" r="1" gradientUnits="userSpaceOnUse" gradientTransform="translate(7.79981 29.5213) scale(29.056 29.056)">
<stop stop-color="#0099FF"/>
<stop offset="0.61" stop-color="#A033FF"/>
<stop offset="0.935" stop-color="#FF5280"/>
<stop offset="1" stop-color="#FF7061"/>
</radialGradient>
</defs>
</svg>
