<svg width="24" height="24" viewBox="0 0 24 24" fill="none" xmlns="http://www.w3.org/2000/svg">
<g clip-path="url(#clip0_16737_63144)">
<path fill-rule="evenodd" clip-rule="evenodd" d="M12.6548 8.44876C12.6075 8.45178 12.5601 8.45328 12.5127 8.45327C11.2981 8.45327 10.3119 7.46708 10.3119 6.25242C10.3119 5.03777 11.2981 4.05157 12.5127 4.05157C13.7274 4.05157 14.7136 5.03777 14.7136 6.25242C14.7142 6.75741 14.5405 7.24713 14.2216 7.63874L16.6544 12.1108C17.2539 11.8929 17.8869 11.7814 18.5248 11.7814C21.5467 11.7814 24.0001 14.2347 24.0001 17.2567C24.0001 20.2786 21.5467 22.732 18.5248 22.732C17.4554 22.7315 16.4094 22.4191 15.5149 21.833C15.4189 21.7706 15.3378 21.688 15.2771 21.5909C15.2165 21.4938 15.1779 21.3846 15.164 21.2709C15.1501 21.1573 15.1612 21.042 15.1967 20.9332C15.2321 20.8243 15.2909 20.7245 15.369 20.6408C15.3706 20.6391 15.3723 20.6373 15.3755 20.637C15.5068 20.4962 15.6833 20.4059 15.8743 20.3819C16.0653 20.3578 16.2586 20.4014 16.4208 20.5051C17.0475 20.911 17.7782 21.1269 18.5248 21.1269C20.6609 21.1269 22.3951 19.3928 22.3951 17.2567C22.3951 15.1206 20.6609 13.3864 18.5248 13.3864C17.7851 13.3864 16.7352 13.71 16.1041 14.1105C16.0716 14.1349 16.0342 14.1521 15.9945 14.1608C15.9548 14.1695 15.9137 14.1695 15.874 14.1609C15.8343 14.1523 15.7969 14.1352 15.7644 14.1109C15.7318 14.0865 15.7049 14.0555 15.6855 14.0198L12.6548 8.44876ZM11.6444 17.9622C11.5334 18.5903 11.3134 19.1942 10.9944 19.7465C9.48348 22.3637 6.13217 23.2618 3.51509 21.7508C0.898016 20.2398 6.89626e-05 16.8884 1.51093 14.2712C2.04602 13.3453 2.83961 12.5956 3.79444 12.114C3.89646 12.0621 4.00859 12.0332 4.12297 12.0293C4.23735 12.0254 4.3512 12.0465 4.45652 12.0913C4.5619 12.1361 4.6562 12.2033 4.7328 12.2884C4.8094 12.3735 4.86644 12.4743 4.89991 12.5838C4.90056 12.5861 4.9012 12.5884 4.89991 12.5913C4.9562 12.7754 4.94616 12.9734 4.87154 13.1509C4.79693 13.3283 4.66245 13.474 4.49152 13.5626C3.82664 13.9023 3.27423 14.4271 2.9009 15.0738C1.83289 16.9235 2.4676 19.2926 4.31749 20.3607C6.16739 21.4287 8.53647 20.7939 9.60447 18.944C9.97432 18.3034 10.219 17.2324 10.1877 16.4855C10.1828 16.4452 10.1866 16.4042 10.1989 16.3655C10.2112 16.3267 10.2317 16.2911 10.259 16.261C10.2863 16.2309 10.3198 16.2071 10.3572 16.1911C10.3946 16.1751 10.4349 16.1674 10.4756 16.1685L16.8155 16.3294C16.8365 16.2871 16.8588 16.2454 16.8827 16.204C17.4901 15.1521 18.8372 14.7911 19.8891 15.3984C20.9412 16.0058 21.302 17.353 20.6947 18.4049C20.0874 19.4568 18.7403 19.8177 17.6882 19.2104C17.2506 18.9585 16.9134 18.5632 16.7336 18.0913L11.6444 17.9622ZM8.98705 10.4509C8.49855 10.0406 8.08548 9.54812 7.76649 8.99565C6.25553 6.37857 7.15347 3.02716 9.77055 1.5163C12.3876 0.00544381 15.739 0.903391 17.2499 3.52036C17.7842 4.44668 18.0367 5.50875 17.9765 6.57643C17.9704 6.69073 17.9394 6.80232 17.8856 6.90335C17.8318 7.00438 17.7565 7.09241 17.6651 7.16126C17.5736 7.23012 17.4682 7.27812 17.3562 7.30191C17.2443 7.32569 17.1285 7.32468 17.0169 7.29895C17.0146 7.29842 17.0122 7.29777 17.0103 7.2952C16.8227 7.2519 16.6563 7.14421 16.5399 6.99087C16.4236 6.83754 16.3646 6.64826 16.3734 6.45597C16.4117 5.71025 16.2334 4.96939 15.8599 4.32276C14.7919 2.47297 12.423 1.83816 10.5731 2.90616C8.72327 3.97427 8.08835 6.34325 9.15646 8.19314C9.52631 8.83375 10.3315 9.58118 10.9939 9.92752C11.0313 9.94341 11.0649 9.96718 11.0922 9.99721C11.1196 10.0272 11.1402 10.0628 11.1527 10.1015C11.1651 10.1402 11.169 10.1811 11.1642 10.2215C11.1593 10.2619 11.1459 10.3007 11.1247 10.3354L7.81523 15.7455C7.84143 15.7847 7.86644 15.8249 7.89038 15.8663C8.4976 16.9183 8.13666 18.2654 7.08466 18.8727C6.03276 19.4801 4.68562 19.1191 4.0783 18.0671C3.47097 17.0152 3.83191 15.6681 4.88381 15.0608C5.32081 14.8077 5.8318 14.7133 6.33036 14.7937L8.98705 10.4509Z" fill="#5C33F0"/>
</g>
<defs>
<clipPath id="clip0_16737_63144">
<rect width="24" height="23.5008" fill="white"/>
</clipPath>
</defs>
</svg>
