<svg width="32" height="32" viewBox="0 0 32 32" fill="none" xmlns="http://www.w3.org/2000/svg">
<path d="M12.8134 3.36981C9.02127 3.6804 6.25629 5.16219 4.52495 7.80224C3.45255 9.43286 2.95511 11.0117 2.729 13.4641C2.64502 14.4282 2.64502 18.906 2.729 19.8701C2.90343 21.7466 3.21998 23.0472 3.79494 24.2378C4.60893 25.9267 5.65549 27.1497 7.08966 28.1008C8.58197 29.0973 10.0484 29.6085 12.2901 29.9126C13.1494 30.0291 18.8602 30.0291 19.7194 29.9126C21.9934 29.6021 23.5632 29.0391 25.0749 28.0038C26.5673 26.9814 27.9562 25.1114 28.5893 23.2672C29.1707 21.5719 29.287 20.6401 29.3258 17.2171C29.3581 14.2988 29.2805 12.8623 29.0221 11.5941C28.0983 7.05164 24.8747 4.12041 20.0747 3.4604C19.4675 3.37628 18.6599 3.3504 16.3924 3.33745C14.7967 3.32451 13.1817 3.34393 12.8134 3.36981ZM18.8602 3.75805C21.2182 3.93923 22.7751 4.37924 24.2803 5.27867C26.4316 6.55987 27.9562 8.71461 28.5312 11.2835C28.796 12.4223 28.8413 13.1212 28.8736 16.1106C28.9059 19.223 28.8606 20.3554 28.6281 21.6301C28.3374 23.2608 27.5686 24.9949 26.858 25.6161C25.792 26.5608 22.8526 27.525 20.3137 27.7644C19.4093 27.8485 17.6005 27.8485 16.7089 27.7579C14.7386 27.5638 12.4646 26.9491 10.9852 26.2049L10.4942 25.959L9.93216 26.1855C9.10525 26.5155 8.27834 26.6773 7.31577 26.6902C6.5793 26.6967 6.50824 26.6838 6.48886 26.5738C6.47594 26.5091 6.547 26.3732 6.65682 26.2502C7.19948 25.6937 7.61294 24.6714 7.56125 24.0243C7.52895 23.6102 7.41913 23.3837 6.77957 22.3354C6.06894 21.1772 5.71363 20.3036 5.30663 18.7119C4.91256 17.1654 4.7769 15.9294 4.81566 14.2406C4.89318 11.1864 5.58442 8.75344 6.98629 6.59222C7.50957 5.78338 8.3817 4.84513 8.80162 4.6316C9.71897 4.17218 10.9916 3.90688 13.0977 3.73864C13.7179 3.68687 18.1431 3.69981 18.8602 3.75805Z" fill="#005EE6"/>
<path d="M8.41451 12.9133V13.4633H10.1911C11.6963 13.4633 11.9676 13.4762 11.9224 13.5539C11.8966 13.6057 11.0761 14.6216 10.1071 15.8186C9.13806 17.0092 8.31761 18.064 8.28531 18.1546C8.24654 18.2516 8.2207 18.4393 8.2207 18.5816V18.834H10.7725C13.3114 18.834 13.3178 18.834 13.4535 18.6916C13.5504 18.5881 13.5827 18.4652 13.5827 18.2063V17.8634H11.7092C10.4172 17.8634 9.83576 17.844 9.83576 17.7922C9.83576 17.7534 10.2492 17.2098 10.7531 16.5822C11.257 15.9545 12.0322 14.9904 12.4715 14.4404C13.2984 13.4115 13.5827 12.9392 13.5827 12.5703V12.3633H10.9986H8.41451V12.9133Z" fill="#005EE6"/>
<path d="M19.9127 15.4567C19.9127 19.0803 19.8675 18.8344 20.5652 18.8344H21.0109V15.599V12.3637H20.4618H19.9127V15.4567Z" fill="#005EE6"/>
<path d="M23.6292 13.8726C22.8927 14.1185 22.3242 14.5973 22.0077 15.2444C21.8332 15.6003 21.8203 15.6909 21.8203 16.3444C21.8203 16.9462 21.8397 17.1079 21.9689 17.3732C22.2661 18.0268 22.9315 18.6156 23.5904 18.8162C23.9716 18.9327 24.708 18.9262 25.0892 18.8097C25.7352 18.6091 26.3683 18.0656 26.6719 17.4379C26.8399 17.0885 26.8593 16.9979 26.8593 16.3767C26.8593 15.7491 26.8464 15.665 26.6526 15.2638C26.3942 14.7073 25.9678 14.2867 25.4187 14.0279C25.0633 13.8596 24.8954 13.8208 24.4367 13.8079C24.1008 13.7949 23.7842 13.8208 23.6292 13.8726ZM25.1344 15.0632C25.3153 15.1732 25.5156 15.3738 25.6318 15.5614C25.7998 15.8397 25.8257 15.9432 25.8257 16.3444C25.8257 16.7456 25.7998 16.8491 25.6318 17.1209C25.1086 17.9685 23.9651 18.1109 23.2739 17.4185C22.4793 16.6162 22.7764 15.3091 23.8359 14.9144C24.2106 14.772 24.7726 14.8367 25.1344 15.0632Z" fill="#005EE6"/>
<path d="M15.643 13.9486C14.9388 14.2075 14.4091 14.6798 14.1119 15.3269C13.9698 15.644 13.944 15.7863 13.9375 16.3428C13.9375 16.951 13.9504 17.0222 14.1507 17.4234C14.7903 18.724 16.2955 19.2481 17.5617 18.614C17.9235 18.4264 17.9751 18.4199 17.9751 18.517C17.9751 18.7046 18.2336 18.834 18.6018 18.834H18.9442V16.3752V13.9163H18.4597C17.9816 13.9163 17.9751 13.9163 17.9751 14.0845C17.9751 14.2786 17.9687 14.2786 17.3614 14.0198C17.0449 13.8839 16.8769 13.858 16.4247 13.858C16.1211 13.858 15.7722 13.8969 15.643 13.9486ZM17.0449 14.9775C17.6328 15.2492 17.9235 15.7022 17.9299 16.3428C17.9364 17.6369 16.4441 18.3358 15.4557 17.4946C15.1003 17.1905 14.9453 16.8346 14.9388 16.3557C14.9388 15.7216 15.236 15.2428 15.811 14.9775C16.2309 14.7769 16.625 14.7769 17.0449 14.9775Z" fill="#005EE6"/>
</svg>
